<mxfile host="app.diagrams.net" modified="2021-02-25T06:15:37.848Z" agent="5.0 (Windows NT 10.0; Win64; x64) AppleWebKit/537.36 (KHTML, like Gecko) Chrome/88.0.4324.182 Safari/537.36" etag="Jat4AAJgi7SinPN7KzEV" version="14.4.3" type="github">
  <diagram name="Page-1" id="2c0d36ab-eaac-3732-788b-9136903baeff">
    <mxGraphModel dx="2288" dy="1230" grid="1" gridSize="10" guides="1" tooltips="1" connect="1" arrows="1" fold="1" page="1" pageScale="1.5" pageWidth="1169" pageHeight="827" background="#ffffff" math="0" shadow="0">
      <root>
        <mxCell id="0" />
        <mxCell id="1" parent="0" />
        <mxCell id="bznv0Sb1hatx5xa1z95T-144" style="edgeStyle=orthogonalEdgeStyle;rounded=0;orthogonalLoop=1;jettySize=auto;html=1;exitX=0.5;exitY=1;exitDx=0;exitDy=0;entryX=0;entryY=0.5;entryDx=0;entryDy=0;endArrow=none;endFill=0;strokeWidth=2;fontSize=16;" edge="1" parent="1" source="2" target="13">
          <mxGeometry relative="1" as="geometry" />
        </mxCell>
        <mxCell id="2" value="CloudStack" style="rounded=1;fillColor=#23445D;gradientColor=none;strokeColor=none;fontColor=#FFFFFF;fontStyle=1;fontFamily=Tahoma;fontSize=20;" parent="1" vertex="1">
          <mxGeometry x="107" y="130" width="190" height="80" as="geometry" />
        </mxCell>
        <mxCell id="13" value="ui" style="rounded=1;fillColor=#23445D;gradientColor=none;strokeColor=none;fontColor=#FFFFFF;fontStyle=1;fontFamily=Tahoma;fontSize=20;" parent="1" vertex="1">
          <mxGeometry x="222" y="260" width="190" height="80" as="geometry" />
        </mxCell>
        <mxCell id="bznv0Sb1hatx5xa1z95T-142" style="edgeStyle=orthogonalEdgeStyle;rounded=0;orthogonalLoop=1;jettySize=auto;html=1;exitX=0.5;exitY=1;exitDx=0;exitDy=0;entryX=0;entryY=0.5;entryDx=0;entryDy=0;endArrow=none;endFill=0;strokeWidth=2;fontSize=16;" edge="1" parent="1" source="16" target="25">
          <mxGeometry relative="1" as="geometry" />
        </mxCell>
        <mxCell id="bznv0Sb1hatx5xa1z95T-143" style="edgeStyle=orthogonalEdgeStyle;rounded=0;orthogonalLoop=1;jettySize=auto;html=1;exitX=0.5;exitY=1;exitDx=0;exitDy=0;entryX=0;entryY=0.5;entryDx=0;entryDy=0;endArrow=none;endFill=0;strokeWidth=2;fontSize=16;" edge="1" parent="1" source="16" target="26">
          <mxGeometry relative="1" as="geometry" />
        </mxCell>
        <mxCell id="16" value="public" style="rounded=1;fillColor=#23445D;gradientColor=none;strokeColor=none;fontColor=#FFFFFF;fontStyle=1;fontFamily=Tahoma;fontSize=20;" parent="1" vertex="1">
          <mxGeometry x="352" y="455.5" width="130" height="60" as="geometry" />
        </mxCell>
        <mxCell id="bznv0Sb1hatx5xa1z95T-128" value="" style="edgeStyle=orthogonalEdgeStyle;rounded=0;orthogonalLoop=1;jettySize=auto;html=1;endArrow=none;endFill=0;strokeWidth=2;fontSize=25;entryX=0;entryY=0.5;entryDx=0;entryDy=0;exitX=0.5;exitY=1;exitDx=0;exitDy=0;" edge="1" parent="1" source="17" target="bznv0Sb1hatx5xa1z95T-127">
          <mxGeometry relative="1" as="geometry" />
        </mxCell>
        <mxCell id="bznv0Sb1hatx5xa1z95T-140" style="edgeStyle=orthogonalEdgeStyle;rounded=0;orthogonalLoop=1;jettySize=auto;html=1;exitX=0.5;exitY=1;exitDx=0;exitDy=0;entryX=0;entryY=0.5;entryDx=0;entryDy=0;endArrow=none;endFill=0;strokeWidth=2;fontSize=16;" edge="1" parent="1" source="17" target="bznv0Sb1hatx5xa1z95T-136">
          <mxGeometry relative="1" as="geometry" />
        </mxCell>
        <mxCell id="bznv0Sb1hatx5xa1z95T-141" style="edgeStyle=orthogonalEdgeStyle;rounded=0;orthogonalLoop=1;jettySize=auto;html=1;exitX=0.5;exitY=1;exitDx=0;exitDy=0;entryX=0;entryY=0.5;entryDx=0;entryDy=0;endArrow=none;endFill=0;strokeWidth=2;fontSize=16;" edge="1" parent="1" source="17" target="bznv0Sb1hatx5xa1z95T-138">
          <mxGeometry relative="1" as="geometry" />
        </mxCell>
        <mxCell id="17" value="src" style="rounded=1;fillColor=#23445D;gradientColor=none;strokeColor=none;fontColor=#FFFFFF;fontStyle=1;fontFamily=Tahoma;fontSize=20;" parent="1" vertex="1">
          <mxGeometry x="352" y="730" width="130" height="60" as="geometry" />
        </mxCell>
        <mxCell id="25" value="assets" style="rounded=1;fillColor=#23445D;gradientColor=none;strokeColor=none;fontColor=#FFFFFF;fontStyle=1;fontFamily=Tahoma;fontSize=20;" parent="1" vertex="1">
          <mxGeometry x="532" y="540" width="130" height="60" as="geometry" />
        </mxCell>
        <mxCell id="26" value="locales" style="rounded=1;fillColor=#23445D;gradientColor=none;strokeColor=none;fontColor=#FFFFFF;fontStyle=1;fontFamily=Tahoma;fontSize=20;" parent="1" vertex="1">
          <mxGeometry x="532" y="630" width="130" height="60" as="geometry" />
        </mxCell>
        <mxCell id="64" value="" style="edgeStyle=elbowEdgeStyle;elbow=horizontal;strokeWidth=2;rounded=0;endArrow=none;endFill=0;" parent="1" source="13" target="16" edge="1">
          <mxGeometry x="92" y="135.5" width="100" height="100" as="geometry">
            <mxPoint x="92" y="235.5" as="sourcePoint" />
            <mxPoint x="192" y="135.5" as="targetPoint" />
            <Array as="points">
              <mxPoint x="317" y="435.5" />
            </Array>
          </mxGeometry>
        </mxCell>
        <mxCell id="65" value="" style="edgeStyle=elbowEdgeStyle;elbow=horizontal;strokeWidth=2;rounded=0;endArrow=none;endFill=0;" parent="1" source="13" target="17" edge="1">
          <mxGeometry x="92" y="135.5" width="100" height="100" as="geometry">
            <mxPoint x="92" y="235.5" as="sourcePoint" />
            <mxPoint x="192" y="135.5" as="targetPoint" />
            <Array as="points">
              <mxPoint x="317" y="475.5" />
            </Array>
          </mxGeometry>
        </mxCell>
        <mxCell id="bznv0Sb1hatx5xa1z95T-134" value="" style="edgeStyle=orthogonalEdgeStyle;rounded=0;orthogonalLoop=1;jettySize=auto;html=1;endArrow=none;endFill=0;strokeWidth=2;fontSize=16;exitX=0.5;exitY=1;exitDx=0;exitDy=0;entryX=0;entryY=0.5;entryDx=0;entryDy=0;" edge="1" parent="1" source="17" target="bznv0Sb1hatx5xa1z95T-133">
          <mxGeometry relative="1" as="geometry" />
        </mxCell>
        <mxCell id="bznv0Sb1hatx5xa1z95T-127" value="components" style="rounded=1;fillColor=#23445D;gradientColor=none;strokeColor=none;fontColor=#FFFFFF;fontStyle=1;fontFamily=Tahoma;fontSize=20;" vertex="1" parent="1">
          <mxGeometry x="535" y="810" width="130" height="60" as="geometry" />
        </mxCell>
        <mxCell id="bznv0Sb1hatx5xa1z95T-129" value="로고, 이미지 파일" style="fillColor=#10739E;strokeColor=none;opacity=30;fontStyle=1;fontSize=16;" vertex="1" parent="1">
          <mxGeometry x="665" y="540" width="140" height="60" as="geometry" />
        </mxCell>
        <mxCell id="bznv0Sb1hatx5xa1z95T-130" value="다국어 처리를 위한&#xa;파일" style="fillColor=#10739E;strokeColor=none;opacity=30;fontStyle=1;fontSize=16;" vertex="1" parent="1">
          <mxGeometry x="665" y="630.5" width="140" height="60" as="geometry" />
        </mxCell>
        <mxCell id="bznv0Sb1hatx5xa1z95T-131" value="아이콘, 스타일&#xa;config파일" style="fillColor=#10739E;strokeColor=none;opacity=30;fontStyle=1;fontSize=16;" vertex="1" parent="1">
          <mxGeometry x="485" y="457" width="150" height="60" as="geometry" />
        </mxCell>
        <mxCell id="bznv0Sb1hatx5xa1z95T-132" value="전역적으로 사용되는 컴포넌트를 렌더링하는 데 사용되는 vue 파일" style="fillColor=#10739E;strokeColor=none;opacity=30;fontStyle=1;fontSize=16;" vertex="1" parent="1">
          <mxGeometry x="664" y="810" width="510" height="60" as="geometry" />
        </mxCell>
        <mxCell id="bznv0Sb1hatx5xa1z95T-133" value="config" style="rounded=1;fillColor=#23445D;gradientColor=none;strokeColor=none;fontColor=#FFFFFF;fontStyle=1;fontFamily=Tahoma;fontSize=20;" vertex="1" parent="1">
          <mxGeometry x="535" y="890" width="130" height="60" as="geometry" />
        </mxCell>
        <mxCell id="bznv0Sb1hatx5xa1z95T-135" value="컴포넌트의 경로를 정의하고 연결하는데 필요한 section / route 정보" style="fillColor=#10739E;strokeColor=none;opacity=30;fontStyle=1;fontSize=16;" vertex="1" parent="1">
          <mxGeometry x="664" y="890" width="510" height="60" as="geometry" />
        </mxCell>
        <mxCell id="bznv0Sb1hatx5xa1z95T-136" value="store" style="rounded=1;fillColor=#23445D;gradientColor=none;strokeColor=none;fontColor=#FFFFFF;fontStyle=1;fontFamily=Tahoma;fontSize=20;" vertex="1" parent="1">
          <mxGeometry x="535" y="970" width="130" height="60" as="geometry" />
        </mxCell>
        <mxCell id="bznv0Sb1hatx5xa1z95T-137" value="프로젝트의 데이터를 Store를 통해 중앙집중적으로 관리하며&#xa;모든 컴포넌트들이 Store를 사용" style="fillColor=#10739E;strokeColor=none;opacity=30;fontStyle=1;fontSize=16;" vertex="1" parent="1">
          <mxGeometry x="664" y="970" width="510" height="60" as="geometry" />
        </mxCell>
        <mxCell id="bznv0Sb1hatx5xa1z95T-138" value="views" style="rounded=1;fillColor=#23445D;gradientColor=none;strokeColor=none;fontColor=#FFFFFF;fontStyle=1;fontFamily=Tahoma;fontSize=20;" vertex="1" parent="1">
          <mxGeometry x="535" y="1050" width="130" height="60" as="geometry" />
        </mxCell>
        <mxCell id="bznv0Sb1hatx5xa1z95T-139" value="특정 기능에서 사용되는 컴포넌트를 렌더링하는 데 사용되는 vue파일" style="fillColor=#10739E;strokeColor=none;opacity=30;fontStyle=1;fontSize=16;" vertex="1" parent="1">
          <mxGeometry x="664" y="1050" width="510" height="60" as="geometry" />
        </mxCell>
      </root>
    </mxGraphModel>
  </diagram>
</mxfile>
